<svg width="1000" height="1000" viewBox="0 0 1000 1000" fill="none" xmlns="http://www.w3.org/2000/svg">
<path d="M500 0C223.9 0 0 223.9 0 500C0 776.1 223.9 1000 500 1000C776.1 1000 1000 776.1 1000 500C1000 223.9 776.1 0 500 0ZM500 900C279.1 900 100 720.9 100 500C100 279.1 279.1 100 500 100C720.9 100 900 279.1 900 500C900 720.9 720.9 900 500 900Z" fill="black"/>
<path d="M300 300H400V700H300V300Z" fill="black"/>
<path d="M450 300H550V700H450V300Z" fill="black"/>
<path d="M600 300H700V700H600V300Z" fill="black"/>
</svg>